Coordinates
version=1
nRows=29
nColumns=22
inDegrees=yes

Units are S.I. units (second, meters, Newtons, ...)
If the header above contains a line with 'inDegrees', this indicates whether rotational values are in degrees (yes) or radians (no).

endheader
time	pelvis_tilt	pelvis_list	pelvis_rotation	pelvis_tx	pelvis_ty	pelvis_tz	hip_flexion_r	hip_adduction_r	hip_rotation_r	knee_angle_r	ankle_angle_r	subtalar_angle_r	hip_flexion_l	hip_adduction_l	hip_rotation_l	knee_angle_l	ankle_angle_l	subtalar_angle_l	lumbar_extension	lumbar_bending	lumbar_rotation
      0.01000000	    -14.00848677	     -0.03650964	    -11.25483610	     -1.13409732	      0.88029919	     -0.48541039	     16.41838111	     -0.20929368	      2.78908171	     -7.44407225	      7.82122492	     -4.99352151	     14.89882338	     -8.10385580	     -9.19846818	    -10.92197627	     11.03279273	      8.65222126	      0.02633085	      0.93058186	      8.12016300
      0.02000000	    -14.01562792	     -0.05127441	    -11.23696975	     -1.13381809	      0.88026218	     -0.48540641	     16.39223592	     -0.20191381	      2.76760116	     -7.42867672	      7.84113556	     -4.99347241	     14.85005287	     -8.11128671	     -9.21583402	    -10.85575862	     11.05867642	      8.65300989	      0.08939902	      0.92206739	      8.08831441
      0.03000000	    -13.93691212	     -0.09156776	    -11.17958943	     -1.13338250	      0.88036773	     -0.48545556	     16.24040346	     -0.19996031	      2.68243970	     -7.38222720	      7.87009978	     -4.97840631	     14.65835903	     -8.10683444	     -9.13767017	    -10.69881491	     11.04322272	      8.67239173	      0.06635439	      0.91967630	      8.01665301
      0.04000000	    -13.91088219	     -0.12987153	    -11.13874889	     -1.13296763	      0.88037684	     -0.48544361	     16.15746406	     -0.18098879	      2.62660025	     -7.35668077	      7.90588748	     -4.96564000	     14.52508246	     -8.12205187	     -9.08839207	    -10.55659896	     11.06167047	      8.68307272	      0.11370377	      0.91745550	      7.98792529
      0.05000000	    -13.86522335	     -0.17455383	    -11.07318387	     -1.13250608	      0.88041810	     -0.48545652	     16.04840139	     -0.16589897	      2.53568519	     -7.33342487	      7.94203500	     -4.95013936	     14.36256723	     -8.13252806	     -9.03182947	    -10.39267572	     11.05743165	      8.69710841	      0.14735041	      0.91617643	      7.91249357
      0.06000000	    -13.79483282	     -0.22352946	    -10.99619023	     -1.13203581	      0.88049774	     -0.48547810	     15.91303800	     -0.15408636	      2.44842663	     -7.31402397	      7.96739634	     -4.92817312	     14.17468807	     -8.14094215	     -8.97094672	    -10.22929857	     11.04279696	      8.71562095	      0.15578858	      0.91424959	      7.80751322
      0.07000000	    -13.76949752	     -0.27211857	    -10.92624935	     -1.13160343	      0.88050062	     -0.48545555	     15.84016547	     -0.12715175	      2.36901653	     -7.31893069	      8.01660919	     -4.91882798	     14.02909384	     -8.16271215	     -8.90222560	    -10.05526678	     11.05106347	      8.73135802	      0.22168990	      0.91331772	      7.75256084
      0.08000000	    -13.69865718	     -0.32081823	    -10.82829953	     -1.13114726	      0.88057983	     -0.48548781	     15.71440345	     -0.11878512	      2.26136120	     -7.32045776	      8.05514601	     -4.90405106	     13.83939165	     -8.16675774	     -8.82276346	     -9.87759852	     11.02500050	      8.76141019	      0.23837669	      0.90721468	      7.62583580
      0.09000000	    -13.66552948	     -0.36775175	    -10.74646597	     -1.13073337	      0.88059358	     -0.48548917	     15.64293529	     -0.09816661	      2.17947719	     -7.34233627	      8.10925712	     -4.89754807	     13.68399017	     -8.18169954	     -8.74534413	     -9.69155897	     11.02318194	      8.78601336	      0.30185073	      0.90526325	      7.56024167
      0.10000000	    -13.61385464	     -0.40946614	    -10.64725326	     -1.13031967	      0.88063980	     -0.48551526	     15.55312495	     -0.09046903	      2.07926140	     -7.36589607	      8.16473136	     -4.89212097	     13.50995229	     -8.18288563	     -8.65699732	     -9.49553260	     11.00069565	      8.81853316	      0.34622227	      0.89241052	      7.45968887
      0.11000000	    -13.53012998	     -0.44786526	    -10.53810679	     -1.12990568	      0.88073886	     -0.48556127	     15.42554042	     -0.09467836	      1.98339031	     -7.38140502	      8.20943063	     -4.88314720	     13.30553931	     -8.17232588	     -8.56727468	     -9.29921926	     10.95711498	      8.86070698	      0.35355157	      0.86988338	      7.33650400
      0.12000000	    -13.45912544	     -0.48349467	    -10.43444386	     -1.12947566	      0.88081463	     -0.48560980	     15.30950490	     -0.09862056	      1.89193502	     -7.39311599	      8.25991725	     -4.87679470	     13.10825747	     -8.16193692	     -8.47725578	     -9.09499395	     10.92399644	      8.89696459	      0.38256588	      0.84900540	      7.24465948
      0.13000000	    -13.41587481	     -0.51750272	    -10.33449339	     -1.12905938	      0.88084308	     -0.48566220	     15.22917389	     -0.09789749	      1.81171016	     -7.41585222	      8.31863042	     -4.87674210	     12.94492334	     -8.15675228	     -8.36612403	     -8.89995328	     10.90771887	      8.92176561	      0.44606067	      0.83198971	      7.18319197
      0.14000000	    -13.34535571	     -0.54749102	    -10.20984976	     -1.12859876	      0.88091926	     -0.48576284	     15.10359305	     -0.11454384	      1.70062999	     -7.41400413	      8.37258618	     -4.87737481	     12.76317184	     -8.13587056	     -8.24560409	     -8.71428571	     10.87022529	      8.94863354	      0.48361703	      0.80594318	      7.08535100
      0.15000000	    -13.27050738	     -0.58323642	    -10.08033155	     -1.12811265	      0.88100655	     -0.48588384	     14.96118630	     -0.12778194	      1.59304086	     -7.39495322	      8.41558108	     -4.87697189	     12.58964338	     -8.12014333	     -8.11961624	     -8.55443547	     10.84400812	      8.97072531	      0.51896168	      0.78768473	      6.99435238
      0.16000000	    -13.19630608	     -0.62443328	     -9.93547366	     -1.12760875	      0.88109896	     -0.48603892	     14.80632558	     -0.14026446	      1.47092170	     -7.35873115	      8.45279358	     -4.87643677	     12.43389430	     -8.10756726	     -7.97646380	     -8.42135301	     10.82576396	      8.98912882	      0.55650887	      0.77439413	      6.90257278
      0.17000000	    -13.12469333	     -0.67134297	     -9.78140230	     -1.12708106	      0.88119378	     -0.48620669	     14.64280698	     -0.14810051	      1.33655928	     -7.30745081	      8.48169074	     -4.87501193	     12.29843239	     -8.10242195	     -7.82274587	     -8.32056535	     10.81837213	      9.00318054	      0.60064337	      0.76835633	      6.81004972
      0.18000000	    -13.05625005	     -0.72262857	     -9.62469035	     -1.12651958	      0.88128957	     -0.48639415	     14.47102907	     -0.15278263	      1.18987661	     -7.24028048	      8.50413886	     -4.87220802	     12.17860580	     -8.10125688	     -7.66749429	     -8.24564252	     10.82093769	      9.01331212	      0.65498242	      0.77184125	      6.72308066
      0.19000000	    -12.99231876	     -0.77417895	     -9.47125043	     -1.12594849	      0.88138407	     -0.48656801	     14.29766543	     -0.15434013	      1.04282588	     -7.16185705	      8.52271962	     -4.86781811	     12.07518901	     -8.10419660	     -7.51895890	     -8.19426955	     10.83110850	      9.01992321	      0.71684409	      0.77402589	      6.65572547
      0.20000000	    -12.93310452	     -0.82146780	     -9.33131473	     -1.12538887	      0.88147456	     -0.48670950	     14.13057349	     -0.15440834	      0.90815844	     -7.08060215	      8.53844758	     -4.86205431	     11.98624763	     -8.10878442	     -7.38580983	     -8.16414600	     10.84653287	      9.02338490	      0.78599860	      0.76953029	      6.61111004
      0.21000000	    -12.87777158	     -0.86247635	     -9.21316584	     -1.12485604	      0.88156423	     -0.48681870	     13.97528968	     -0.15345112	      0.79260843	     -7.00419682	      8.54956795	     -4.85476062	     11.90908805	     -8.11320310	     -7.27457555	     -8.15404996	     10.86263477	      9.02344260	      0.85926865	      0.75996672	      6.59495984
      0.22000000	    -12.82964746	     -0.89539406	     -9.11921948	     -1.12436853	      0.88164291	     -0.48688402	     13.83879226	     -0.15200947	      0.70309551	     -6.93591702	      8.55944682	     -4.84631953	     11.84567364	     -8.11752042	     -7.18947658	     -8.15910679	     10.88189161	      9.02042310	      0.93885955	      0.74140043	      6.60724124
      0.23000000	    -12.80519993	     -0.91254204	     -9.07062478	     -1.12396525	      0.88168574	     -0.48688611	     13.76276335	     -0.15054721	      0.65958854	     -6.91191707	      8.57481236	     -4.84420565	     11.81711734	     -8.12103859	     -7.15876693	     -8.18990522	     10.88740665	      9.01919749	      1.04161975	      0.70985393	      6.68523481
      0.24000000	    -12.75834069	     -0.93864508	     -9.00223769	     -1.12352201	      0.88175972	     -0.48692028	     13.62537885	     -0.14944641	      0.59482413	     -6.82553932	      8.57677891	     -4.82946617	     11.75835718	     -8.12434459	     -7.08830661	     -8.20686302	     10.92982022	      9.00941979	      1.12203472	      0.68676870	      6.70509515
      0.25000000	    -12.73501442	     -0.95258149	     -8.97915778	     -1.12316733	      0.88180001	     -0.48688505	     13.55796654	     -0.14422255	      0.55658101	     -6.80298055	      8.58917205	     -4.82608136	     11.73109911	     -8.13186568	     -7.06660230	     -8.24328349	     10.93222886	      9.00649714	      1.22359665	      0.65188416	      6.79874749
      0.26000000	    -12.71362319	     -0.96359767	     -8.96259762	     -1.12280550	      0.88183257	     -0.48686110	     13.48554652	     -0.14178337	      0.52530473	     -6.76526712	      8.60155596	     -4.82066288	     11.70093305	     -8.13568434	     -7.05191995	     -8.27310515	     10.95031930	      9.00218203	      1.33075434	      0.61898169	      6.88975615
      0.27000000	    -12.67310786	     -0.97683621	     -8.96596472	     -1.12240488	      0.88189272	     -0.48682688	     13.36272247	     -0.13818932	      0.54805685	     -6.66996477	      8.58301182	     -4.79056040	     11.63513157	     -8.14130008	     -7.07461643	     -8.29002856	     11.01019857	      8.98056606	      1.42051183	      0.59129000	      6.99074482
      0.28000000	    -12.64817433	     -0.98666823	     -8.96475285	     -1.12205543	      0.88193271	     -0.48681511	     13.29303063	     -0.13586612	      0.51944537	     -6.64050539	      8.59310648	     -4.78263185	     11.60010409	     -8.14497141	     -7.07047854	     -8.32175507	     11.01530171	      8.97567806	      1.52387476	      0.56389550	      7.09352873
      0.29000000	    -12.59926755	     -0.99213515	     -9.00716850	     -1.12163817	      0.88200250	     -0.48674311	     13.16792507	     -0.13381729	      0.57311851	     -6.54976753	      8.57306548	     -4.74313721	     11.50832262	     -8.14823832	     -7.13436594	     -8.32655209	     11.06968877	      8.95652469	      1.61053575	      0.53424196	      7.21128503
